PathFileType	4	(X/Y/Z)	C:/Users/beibeiliu/ov580/test_trc/User2\sequence.5_training_dense_left.trc
DataRate	CameraRate	NumFrames	NumMarkers	Units	OrigDataRate	OrigDataStartFrame	OrigNumFrames
120	120	13	19	mm	120	1	58
Frame#	Time	ThumbCMC			ThumbMCP			ThumbIP			ThumbTip			IndexMCP			IndexPIP			IndexTip			MiddleMCP			MiddlePIP			MiddleTip			RingMCP			RingPIP			RingTip			PinkyMCP			PinkyPIP			PinkyTip			BackHand1			BackHand2			BackHand3	
		X0	Y0	Z0	X1	Y1	Z1	X2	Y2	Z2	X3	Y3	Z3	X4	Y4	Z4	X5	Y5	Z5	X6	Y6	Z6	X7	Y7	Z7	X8	Y8	Z8	X9	Y9	Z9	X10	Y10	Z10	X11	Y11	Z11	X12	Y12	Z12	X13	Y13	Z13	X14	Y14	Z14	X15	Y15	Z15	X16	Y16	Z16	X17	Y17	Z17	X18	Y18	Z18	
0	0	-352.584	-3.37654	26.5482	-365.135	-5.64227	-4.89087	-377.298	-15.8338	-37.9552	-365.679	-34.5	-64.0198	-354.465	-56.8745	-39.3589	-346.942	-36.7844	-63.0083	-345.137	-16.1478	-29.2148	-332.667	-55.5333	-46.9483	-320.739	-23.8143	-57.4308	-323.005	-17.0361	-17.2645	-310.148	-47.0691	-47.5209	-304.222	-18.5489	-48.3736	-309.363	-16.1627	-11.3982	-287.738	-44.9915	-38.1785	-288.96	-14.6726	-33.8608	-299.762	-13.8239	-1.85277	-310.609	-65.1847	15.4784	-301.745	-46.788	51.04	-338.953	-43.6661	35.1719	
1	0.00833333	-355.975	-5.43864	25.768	-371.099	-5.96783	-4.40887	-381.001	-16.7356	-34.4317	-379.155	-34.8338	-60.4765	-373.661	-59.824	-34.3734	-361.036	-40.8156	-57.5879	-354.705	-22.7487	-24.9248	-353.518	-62.709	-44.4268	-338.235	-37.3497	-57.8824	-333.358	-25.0421	-17.1327	-326.204	-63.7148	-44.0969	-319.686	-33.9312	-49.66	-320.679	-26.5628	-9.49089	-308.647	-63.9074	-33.8782	-301.826	-28.0555	-34.4559	-306.204	-23.393	-4.77014	-324.554	-71.5231	21.6883	-316.174	-55.8088	51.7115	-351.9	-45.0755	37.3564	
2	0.0166667	-356.382	0.279955	26.4907	-369.841	1.96067	-3.05874	-389.351	-6.20117	-37.2687	-388.383	-22.26	-56.6538	-395.919	-47.4932	-33.5556	-378.874	-37.8019	-54.2492	-365.534	-16.9429	-27.8594	-374.06	-62.8992	-37.2926	-354.807	-40.1598	-56.3328	-344.645	-24.4285	-20.8275	-353.55	-66.3702	-39.3798	-334.628	-39.2891	-48.2112	-330.283	-31.4285	-13.2314	-330.677	-73.5651	-34.8647	-316.452	-42.1471	-39.5875	-318.417	-34.3434	-9.66568	-344.2	-73.7716	24.4646	-329.95	-57.3448	51.7341	-360.447	-39.8315	41.7741	
3	0.025	-357.635	9.92965	23.4328	-366.645	12.3776	-5.31565	-384.195	12.5152	-36.1095	-390.352	-1.58844	-57.6876	-404.744	-26.7974	-31.4622	-385.963	-15.4352	-54.0124	-365.669	-9.80321	-28.168	-392.276	-44.5587	-34.6096	-365.418	-30.1436	-56.3413	-349.222	-20.3083	-21.7134	-372.75	-55.4355	-41.3085	-347.816	-37.774	-51.0545	-339.489	-26.819	-20.6955	-355.979	-67.712	-31.94	-335.418	-43.0734	-43.9915	-327.439	-33.9419	-13.6007	-365.172	-63.8883	22.3223	-343.648	-57.7838	50.7612	-371.341	-27.6578	40.6109	
4	0.0333333	-346.031	17.1512	25.2661	-358.143	28.1829	-7.19787	-371.485	35.7292	-37.5255	-383.993	21.0445	-61.6102	-405.46	4.80251	-30.7842	-386.594	5.28194	-56.9872	-360.423	9.97895	-31.004	-400.727	-16.54	-42.289	-369.15	-11.1258	-58.1092	-349.631	-8.11691	-27.7609	-383.874	-40.414	-42.8729	-356.112	-25.9586	-53.9107	-345.007	-22.6543	-19.8057	-371.11	-57.2508	-37.7133	-348.665	-37.5034	-47.5915	-335.583	-31.1449	-17.325	-381.298	-47.5992	21.6511	-360.985	-42.6307	48.9696	-374.365	-11.2262	38.0629	
5	0.0416667	-337.095	25.3205	22.0657	-339.852	38.6975	-6.68368	-352.766	48.0704	-39.8511	-365.683	40.1093	-63.8326	-391.575	34.3673	-32.8647	-371.71	22.9177	-58.1831	-348.778	20.8805	-33.4633	-396.229	8.05954	-44.1428	-367.803	4.95362	-63.023	-346.713	-2.11109	-30.0224	-390.512	-16.6399	-45.5268	-359.806	-16.6462	-57.3857	-346.236	-16.4546	-26.5995	-385.671	-34.5417	-38.9898	-357.921	-28.2401	-51.6465	-343.28	-27.8915	-21.6757	-387.437	-21.2359	21.9831	-369.576	-29.0857	47.8337	-369.5	10.657	37.0484	
6	0.05	-320.112	29.6354	22.3726	-318.05	43.0246	-8.06003	-324.365	50.6074	-38.2475	-340.937	49.0135	-62.0754	-371.491	51.6284	-38.8741	-355.52	42.3999	-60.4823	-336.721	25.5036	-34.3428	-383.259	32.1231	-45.8641	-359.973	20.2005	-65.1954	-339.283	5.01149	-30.7102	-385.337	11.5328	-43.6485	-360.918	-2.56251	-59.5612	-344.723	-5.90409	-24.0774	-389.25	-13.6259	-39.8501	-356.949	-19.2132	-50.2231	-346.474	-21.2297	-21.0279	-383.386	2.45269	20.4818	-372.355	-12.31	48.9629	-359.722	23.695	37.9522	
7	0.0583333	-305.087	27.188	27.4204	-299.431	39.5418	-4.49485	-304.029	55.3026	-39.3874	-318.826	55.5878	-63.4304	-349.528	64.8819	-37.6592	-334.458	47.0505	-59.6119	-323.8	28.7096	-33.7311	-364.387	48.9842	-45.7076	-346.938	28.6134	-64.6382	-328.741	12.5431	-29.0175	-372.932	28.4588	-45.0592	-354.506	5.54219	-58.3778	-341.847	-1.27096	-25.9857	-382.946	6.11005	-42.023	-356.17	-7.6973	-50.4593	-346.085	-12.7408	-16.7195	-379.613	17.236	20.4511	-369.465	4.78902	48.0877	-345.335	37.5655	38.2599	
8	0.0666667	-294.949	28.5439	26.7242	-287.19	38.9943	-4.20437	-288.075	50.455	-35.4794	-302.952	55.5243	-61.8143	-327.589	71.2756	-35.5518	-316.574	49.1014	-59.0711	-305.025	33.3572	-28.2807	-345.709	58.6339	-42.9141	-331.662	29.6392	-62.9933	-319.791	14.0216	-29.2666	-358.454	37.3625	-47.4777	-342.052	12.826	-57.3103	-331.509	8.21999	-20.8857	-372.965	18.8067	-38.4728	-347.303	0.237858	-49.255	-339.57	-7.03725	-15.885	-366.349	32.8169	18.347	-361.452	15.0072	49.838	-332.442	42.1719	37.7744	
9	0.075	-285.578	25.9132	29.736	-269.319	36.3614	-2.6393	-265.695	46.473	-33.8893	-281.332	48.2628	-59.0344	-306.154	70.9026	-38.2987	-301.106	49.9167	-60.1482	-294.057	28.1735	-29.5741	-325.046	60.0291	-47.093	-311.788	31.1668	-63.2354	-306.466	13.4329	-28.3396	-338.604	41.6182	-49.9448	-328.78	13.3034	-57.7666	-321.381	8.79266	-20.5414	-355.339	26.5757	-38.4533	-334.195	-0.0298824	-46.6052	-329.576	-2.52317	-15.3496	-356.526	39.4896	16.4333	-353.079	26.2862	45.5058	-319.149	46.3734	37.9687	
10	0.0833333	-272.921	25.8651	31.1069	-256.979	31.0051	1.92101	-252.092	39.5911	-32.4193	-262.842	43.548	-60.081	-289.208	64.1773	-40.6089	-279.796	42.1673	-58.7408	-280.419	22.6618	-25.8796	-307.065	54.9124	-50.4046	-295.988	25.7682	-62.0561	-297.269	8.21045	-25.6848	-327.403	36.2726	-50.5638	-313.023	9.50426	-56.6852	-308.654	6.2472	-17.6525	-339.797	25.5613	-40.8829	-320.254	-2.41136	-46.7602	-318.443	-4.74658	-14.9473	-343.277	41.6231	13.7729	-341.819	29.4142	41.9852	-309.226	47.4003	36.0183	
11	0.0916667	-266.315	18.7164	34.9043	-242.565	25.1067	6.49994	-236.357	32.6106	-27.8745	-247.647	34.0024	-53.9993	-272.573	58.1472	-40.8937	-264.908	32.4877	-57.0863	-267.24	14.4334	-28.7191	-292.699	50.269	-48.0841	-283.645	17.0214	-61.4428	-283.885	3.11043	-21.5378	-312.741	33.6399	-49.539	-297.638	6.8558	-56.7778	-297.975	-2.02454	-20.9228	-323.452	22.0448	-45.8391	-308.771	-3.61979	-48.5993	-308.803	-11.6219	-14.2536	-331.775	42.7168	10.9268	-335.069	29.0668	42.4592	-295.035	45.1191	33.7587	
12	0.1	-257.535	17.7437	34.4803	-238.356	18.7609	8.73588	-224.773	25.6457	-24.9814	-230.916	29.2096	-52.8678	-258.601	52.9007	-40.972	-250.208	28.3352	-58.0232	-252.993	6.46365	-32.3545	-276.751	45.8352	-49.1839	-270.545	12.0669	-61.5856	-273.698	-5.16187	-27.5385	-301.206	30.7401	-51.8117	-284.379	2.43204	-57.3551	-286.034	-7.74097	-23.1747	-317.7	20.123	-43.5614	-300.557	-5.93692	-52.7885	-295.452	-17.7763	-18.8701	-315.32	40.102	9.4078	-322.668	27.4435	44.272	-286.455	40.4333	35.5907	
